HIERARCHY
ROOT Hips
{
	OFFSET 0.000000 0.000000 0.000000
	CHANNELS 6 Xposition Yposition Zposition Zrotation Yrotation Xrotation 
	JOINT LHipJoint
	{
		OFFSET 0.000000 0.000000 0.000000
		CHANNELS 3 Zrotation Yrotation Xrotation
		JOINT LeftUpLeg
		{
			OFFSET 1.363060 -1.794630 0.839290
			CHANNELS 3 Zrotation Yrotation Xrotation
			JOINT LeftLeg
			{
				OFFSET 2.448110 -6.726130 0.000000
				CHANNELS 3 Zrotation Yrotation Xrotation
				JOINT LeftFoot
				{
					OFFSET 2.562200 -7.039590 0.000000
					CHANNELS 3 Zrotation Yrotation Xrotation
					JOINT LeftToeBase
					{
						OFFSET 0.157640 -0.433110 2.322550
						CHANNELS 3 Zrotation Yrotation Xrotation
						End Site
						{
							OFFSET 0.000000 0.000000 0.000000
						}
					}
				}
			}
		}
	}
	JOINT RHipJoint
	{
		OFFSET 0.000000 0.000000 0.000000
		CHANNELS 3 Zrotation Yrotation Xrotation
		JOINT RightUpLeg
		{
			OFFSET -1.305520 -1.794630 0.839290
			CHANNELS 3 Zrotation Yrotation Xrotation
			JOINT RightLeg
			{
				OFFSET -2.542530 -6.985550 0.000000
				CHANNELS 3 Zrotation Yrotation Xrotation
				JOINT RightFoot
				{
					OFFSET -2.568260 -7.056230 0.000000
					CHANNELS 3 Zrotation Yrotation Xrotation
					JOINT RightToeBase
					{
						OFFSET -0.164730 -0.452590 2.363150
						CHANNELS 3 Zrotation Yrotation Xrotation
						End Site
						{
							OFFSET 0.000000 0.000000 0.000000
						}
					}
				}
			}
		}
	}
	JOINT LowerBack
	{
		OFFSET 0.000000 0.000000 0.000000
		CHANNELS 3 Zrotation Yrotation Xrotation
		JOINT Spine
		{
			OFFSET 0.028270 2.035590 -0.193380
			CHANNELS 3 Zrotation Yrotation Xrotation
			JOINT Spine1
			{
				OFFSET 0.056720 2.048850 -0.042750
				CHANNELS 3 Zrotation Yrotation Xrotation
				JOINT Neck
				{
					OFFSET 0.000000 0.000000 0.000000
					CHANNELS 3 Zrotation Yrotation Xrotation
					JOINT Neck1
					{
						OFFSET -0.054170 1.746240 0.172020
						CHANNELS 3 Zrotation Yrotation Xrotation
						JOINT Head
						{
							OFFSET 0.104070 1.761360 -0.123970
							CHANNELS 3 Zrotation Yrotation Xrotation
							End Site
							{
								OFFSET 0.000000 0.000000 0.000000
							}
						}
					}
				}
				JOINT LeftShoulder
				{
					OFFSET 0.000000 0.000000 0.000000
					CHANNELS 3 Zrotation Yrotation Xrotation
					JOINT LeftArm
					{
						OFFSET 3.362410 1.200890 -0.311210
						CHANNELS 3 Zrotation Yrotation Xrotation
						JOINT LeftForeArm
						{
							OFFSET 4.983000 -0.000000 -0.000000
							CHANNELS 3 Zrotation Yrotation Xrotation
							JOINT LeftHand
							{
								OFFSET 3.483560 -0.000000 -0.000000
								CHANNELS 3 Zrotation Yrotation Xrotation
								JOINT LeftFingerBase
								{
									OFFSET 0.000000 0.000000 0.000000
									CHANNELS 3 Zrotation Yrotation Xrotation
									JOINT LeftHandIndex1
									{
										OFFSET 0.715260 -0.000000 -0.000000
										CHANNELS 3 Zrotation Yrotation Xrotation
										End Site
										{
											OFFSET 0.000000 0.000000 0.000000
										}
									}
								}
								JOINT LThumb
								{
									OFFSET 0.000000 0.000000 0.000000
									CHANNELS 3 Zrotation Yrotation Xrotation
									End Site
									{
										OFFSET 0.000000 0.000000 0.000000
									}
								}
							}
						}
					}
				}
				JOINT RightShoulder
				{
					OFFSET 0.000000 0.000000 0.000000
					CHANNELS 3 Zrotation Yrotation Xrotation
					JOINT RightArm
					{
						OFFSET -3.136600 1.374050 -0.404650
						CHANNELS 3 Zrotation Yrotation Xrotation
						JOINT RightForeArm
						{
							OFFSET -5.241900 -0.000000 -0.000000
							CHANNELS 3 Zrotation Yrotation Xrotation
							JOINT RightHand
							{
								OFFSET -3.444170 -0.000000 -0.000000
								CHANNELS 3 Zrotation Yrotation Xrotation
								JOINT RightFingerBase
								{
									OFFSET 0.000000 0.000000 0.000000
									CHANNELS 3 Zrotation Yrotation Xrotation
									JOINT RightHandIndex1
									{
										OFFSET -0.622530 -0.000000 -0.000000
										CHANNELS 3 Zrotation Yrotation Xrotation
										End Site
										{
											OFFSET 0.000000 0.000000 0.000000
										}
									}
								}
								JOINT RThumb
								{
									OFFSET 0.000000 0.000000 0.000000
									CHANNELS 3 Zrotation Yrotation Xrotation
									End Site
									{
										OFFSET 0.000000 0.000000 0.000000
									}
								}
							}
						}
					}
				}
			}
		}
	}
}
MOTION
Frames: 4
Frame Time: 0.008333
-11.430511 16.024324 15.867868 -19.239516 -89.795724 26.661257 -7.826425 7.053415 0.580195 -19.598017 -11.990560 -19.764311 0.133997 5.955026 43.869560 8.856770 0.165708 -12.540883 13.185463 0.531697 -19.092654 -5.867135 -11.426701 3.875753 20.522631 12.385720 -44.366922 -5.817612 -21.626860 49.462927 -12.152884 -9.879377 -2.783141 -7.948756 4.367703 -14.258181 11.720247 2.774915 1.683779 -2.540593 -1.503430 -5.912314 0.344689 -3.133822 4.734534 -8.084717 -0.197914 -12.829010 1.159301 0.884782 7.973055 4.107013 -1.845217 21.089357 2.615985 -4.962539 1.951149 -93.023322 -34.932678 16.210366 172.250088 -70.953989 -175.053760 4.577392 23.743208 -2.486156 -0.000000 -0.000000 -0.000000 -0.000000 -0.000000 -0.000000 -0.000000 -0.000000 0.000000 -12.302186 -0.438964 0.292581 75.400394 12.202710 40.099330 -98.794566 64.689958 -82.300483 19.022875 -1.982448 -0.325926 0.000000 0.000000 0.000000 0.000000 -0.000000 0.000000 0.000000 0.000000 0.000000 
-11.673574 16.096096 15.901652 -34.876284 -89.780301 42.435167 -8.583440 6.038915 0.271613 -18.774012 -10.156282 -19.037937 0.137716 6.396693 43.132951 6.743928 -1.201346 -12.162768 13.374115 -0.215563 -18.712137 -6.462151 -12.284718 4.159437 21.969208 12.728405 -43.387967 -3.730666 -20.145986 44.283018 -12.075772 -9.674206 -3.389153 -7.778248 4.566850 -13.706261 11.424267 2.766505 1.763181 -2.641304 -1.761400 -6.176068 0.744678 -3.514965 4.352836 -8.189617 -0.080188 -12.796716 1.284256 1.025000 8.137740 4.046908 -1.195926 20.936575 2.143627 -5.319153 1.912108 -92.509371 -34.833264 18.072202 170.249329 -70.583111 -169.580861 5.100907 21.241784 -2.133157 -0.000000 -0.000000 -0.000000 -0.000000 -0.000000 0.000000 -0.000000 0.000000 0.000000 -12.000587 -0.543532 0.207949 75.119679 11.188133 39.666502 -99.154170 64.933044 -86.210002 19.324001 -3.506528 -0.812560 -0.000000 -0.000000 0.000000 -0.000000 -0.000000 0.000000 -0.000000 -0.000000 0.000000 
-11.931967 16.149700 15.927628 -50.700237 -89.221838 58.492652 -8.412684 5.379226 0.017772 -18.619278 -8.829013 -18.210762 0.328980 6.711970 42.500295 5.271946 -2.572326 -11.663947 12.548260 -0.801402 -17.167031 -7.004485 -13.370318 4.857519 23.950763 13.139145 -42.551194 -1.828397 -18.279701 38.883829 -12.071571 -9.419195 -3.446200 -8.268129 6.358118 -13.043330 11.308918 2.670385 1.384885 -2.501666 -2.211218 -6.262436 0.226407 -3.771339 4.022736 -7.358137 0.016945 -12.619845 1.501654 0.956150 8.289536 3.777613 -0.530125 21.097446 2.902094 -5.813334 1.537909 -92.103391 -34.309371 19.748836 168.180634 -70.211964 -164.940164 5.357890 19.503769 -1.920295 -0.000000 -0.000000 -0.000000 -0.000000 -0.000000 0.000000 -0.000000 0.000000 0.000000 -11.006062 -0.690882 0.253880 74.961532 10.219890 39.977146 -99.074431 64.489987 -85.646349 20.083721 -3.261154 -0.745662 0.000000 0.000000 0.000000 0.000000 0.000000 -0.000000 0.000000 0.000000 0.000000 
-12.186246 16.202102 15.990691 -99.179683 -87.213241 107.084157 -7.172303 5.248555 -0.023792 -17.986910 -6.904184 -17.918624 0.345249 6.944656 41.955120 3.336683 -3.570648 -11.358319 12.742990 -1.719227 -16.678227 -6.173226 -13.254200 4.742648 26.374729 12.878890 -40.590922 -0.292361 -16.476006 32.865198 -10.673933 -8.345115 -2.649245 -7.871369 6.256149 -12.319307 13.415595 2.787439 1.474523 -2.630619 -2.259251 -6.419351 -0.048969 -3.538799 3.878253 -7.101242 0.133979 -12.682359 1.718481 1.003041 8.411027 3.529965 -0.033304 20.910904 3.126219 -5.861339 1.350908 -91.861613 -34.216466 21.324124 166.923822 -69.926751 -161.665269 4.992982 18.294819 -1.857921 -0.000000 -0.000000 -0.000000 0.000000 -0.000000 0.000000 0.000000 0.000000 -0.000000 -10.717207 -0.790835 0.360228 74.790375 9.681136 41.623866 -98.388133 62.814848 -81.621742 19.765969 -2.431837 -0.472981 0.000000 0.000000 0.000000 0.000000 0.000000 0.000000 0.000000 0.000000 0.000000 
